# xmcd
#
# Track frame offsets:
# 150
# 13085
# 30135
# 41762
# 52855
# 66265
# 81500
# 100630
# 114710
# 125195
# 134920
# 150105
# 161150
# 174890
# 190275
# 201860
# 216685
#
# Disc length: 3015 seconds
#
#
# Revision: 1
# Processed by: cddbd v1.5.2PL0 Copyright (c) Steve Scherf et al.
# Submitted via: FreeRIP 2.951 
#
DISCID=f20bc511
DTITLE=Kenny Rogers and The First Edition - The Hits Collection
DYEAR=1900
DGENRE=Country
TTITLE0=Ruby, Don't Take Your Love To Town
TTITLE1=Something's Burning
TTITLE2=What Am I Gonna Do
TTITLE3=If Wishes Were Horses
TTITLE4=Shine On Ruby Mountain
TTITLE5=For The Good Times
TTITLE6=Lay It Down
TTITLE7=Sunshine
TTITLE8=Ticket To Nowhere
TTITLE9=Where Does Rosie Go?
TTITLE10=Tell It All Brother
TTITLE11=Always Leaving, Always Gone
TTITLE12=Loser
TTITLE13=Tulsa Turnaround
TTITLE14=Me and Bobby McGee
TTITLE15=All God's Lonely Children
TTITLE16=Once Again She's All Alone
EXTD=
EXTT0=
EXTT1=
EXTT2=
EXTT3=
EXTT4=
EXTT5=
EXTT6=
EXTT7=
EXTT8=
EXTT9=
EXTT10=
EXTT11=
EXTT12=
EXTT13=
EXTT14=
EXTT15=
EXTT16=
PLAYORDER=
